<svg width="657" height="678" viewBox="0 0 657 678" fill="none" xmlns="http://www.w3.org/2000/svg">
<path d="M256.459 36.8439C290.657 -13.0114 364.572 -12.0956 397.624 38.5275C403.951 48.2179 408.238 59.1091 410.21 70.5128L429.518 182.157C435.321 215.717 464.436 240.229 498.494 240.229H556.198C673.309 240.229 695.872 406.497 582.996 437.706C568.656 441.671 553.615 442.404 538.958 439.854L507.855 434.441C490.42 431.406 475.244 446.566 478.26 464.004C480.381 476.269 491.022 485.227 503.468 485.227H584.231C591.143 485.227 597.975 486.705 604.269 489.562C646.013 508.508 640.579 569.446 596.143 580.708L479.783 610.199C464.269 614.131 450.971 623.685 439.456 634.8C412.076 661.231 374.76 677.727 333.024 677.727C294.423 677.727 259.521 663.589 232.794 640.47C221.012 630.278 207.63 621.658 192.385 618.455L60.1493 590.674C21.1288 582.476 4.60039 535.902 29.7236 504.941C39.8429 492.47 55.0463 485.227 71.1064 485.227H160.173C173.646 485.227 185.067 475.317 186.968 461.979C189.554 443.832 173.732 428.417 155.659 431.475L116.415 438.113C94.883 441.756 72.7504 438.223 53.4218 428.06C-38.6647 379.637 -4.24617 240.229 99.7958 240.229H157.839C192.683 240.229 222.223 214.601 227.139 180.105L242.418 72.8947C244.262 59.9575 249.067 47.6201 256.459 36.8439Z" fill="#D9D9D9"/>
</svg>
