<svg width="789" height="2876" viewBox="0 0 789 2876" fill="none" xmlns="http://www.w3.org/2000/svg">
<path d="M586.322 2749C599.137 2749 611.649 2752.9 622.195 2760.18C673.188 2795.37 648.282 2875.31 586.322 2875.31H202.223C140.305 2875.31 115.369 2795.46 166.283 2760.22C176.843 2752.92 189.38 2749 202.223 2749H586.322ZM398 0C468.016 1.43863e-06 528.481 40.8852 556.827 100.083C560.211 107.15 567.157 112 574.992 112C636.3 112 686 161.7 686 223.008C686 259.34 668.22 293.373 638.398 314.125L577.961 356.181C575.479 357.908 574 360.74 574 363.763C574 368.864 578.136 373 583.237 373H645.594C724.795 373 789 437.205 789 516.406C789 582.037 744.445 639.293 680.826 655.417L559.108 686.266C544.196 690.045 531.27 698.974 520.201 709.656C488.545 740.207 445.468 759 398 759H391C344.058 759 301.41 740.622 269.855 710.669C258.991 700.357 246.382 691.725 231.881 687.974L107.733 655.864C44.3061 639.459 4.47841e-05 582.236 0 516.722C0 437.346 64.3464 373 143.722 373H206.445C211.17 373 215 369.17 215 364.445C215 361.625 213.611 358.987 211.286 357.391L148.056 313.987C117.976 293.339 100 259.197 100 222.712C100 161.568 149.568 112 210.712 112C220.535 112 229.217 105.9 233.625 97.1219C262.549 39.5262 322.158 1.41452e-06 391 0H398Z" fill="#D9D9D9"/>
</svg>
