<svg width="789" height="867" viewBox="0 0 789 867" fill="none" xmlns="http://www.w3.org/2000/svg">
<path d="M373.746 0.911617C385.552 -0.294583 397.449 -0.303906 409.257 0.884273L630.622 23.1597C720.546 32.2087 789 107.898 789 198.276V212.097C789 291.095 736.953 357.934 665.279 380.199C641.208 387.676 621 407.77 621 432.975C621 459 642.097 480.097 668.122 480.097H686C742.885 480.097 789 526.212 789 583.097C789 639.982 742.885 686.097 686 686.097H625C622.791 686.097 621 687.888 621 690.097C621 787.299 542.202 866.097 445 866.097H325C227.798 866.097 149 787.299 149 690.097C149 687.888 147.209 686.097 145 686.097H103C46.1147 686.097 0 639.982 0 583.097C0.000115466 526.212 46.1147 480.097 103 480.097C128.405 480.097 149 459.502 149 434.097V429.468C149 404.481 130.327 383.951 107.324 374.193C44.245 347.435 0 284.934 0 212.097V198.032C0 107.756 68.3034 32.1186 158.111 22.9429L373.746 0.911617Z" fill="#D9D9D9"/>
</svg>
