<svg width="789" height="759" viewBox="0 0 789 759" fill="none" xmlns="http://www.w3.org/2000/svg">
<path d="M398 0C455.566 1.18281e-06 506.675 27.6375 538.785 70.3671C556.107 93.4166 580.978 112 609.81 112H704.5C751.168 112 789 149.832 789 196.5C789 243.168 751.168 281 704.5 281H620C594.595 281 574 301.595 574 327C574 352.405 594.595 373 620 373H661.5C731.916 373 789 430.084 789 500.5C789 570.916 731.916 628 661.5 628H622.125C590.339 628 563.715 650.397 546.674 677.229C515.457 726.381 460.539 759 398 759H391C328.461 759 273.543 726.381 242.326 677.229C225.285 650.397 198.661 628 166.875 628H127.5C57.0837 628 0 570.916 0 500.5C0 430.084 57.0837 373 127.5 373H169C194.405 373 215 352.405 215 327C215 301.595 194.405 281 169 281H84.5C37.8319 281 0 243.168 0 196.5C0 149.832 37.8319 112 84.5 112H179.19C208.022 112 232.893 93.4166 250.215 70.3671C282.325 27.6375 333.434 1.18281e-06 391 0H398Z" fill="#D9D9D9"/>
</svg>
