<svg width="789" height="759" viewBox="0 0 789 759" fill="none" xmlns="http://www.w3.org/2000/svg">
<path d="M398 0C460.772 1.28979e-06 515.868 32.8627 547.023 82.3219C559.449 102.048 577.748 117.957 597.814 129.826C635.636 152.198 661 193.4 661 240.527V246.279C661 268.879 654.055 290.934 641.105 309.456C626.298 330.636 605.31 345.089 582.194 351.959C577.462 353.365 574 357.582 574 362.518C574 368.307 578.693 373 584.482 373H643.772C723.979 373 789 438.021 789 518.228C789 583.176 745.876 640.228 683.392 657.946L546.564 696.745C534.125 700.272 523.127 707.434 513.366 715.914C482.474 742.752 442.135 759 398 759H391C347.598 759 307.866 743.288 277.179 717.244C267.71 709.207 257.115 702.401 245.185 698.949L105.111 658.416C42.851 640.4 0.000200289 583.392 0 518.577C0 438.177 65.1774 373 145.577 373H202.893C209.58 373 215 367.58 215 360.893C215 355.438 211.326 350.717 206.194 348.867C187.102 341.986 169.601 330.068 155.837 313.434C138.491 292.47 129 266.113 129 238.903V236.258C129 190.486 153.748 150.496 190.594 128.937C211.069 116.956 229.969 101.015 242.784 81.0519C274.078 32.3009 328.767 1.27872e-06 391 0H398Z" fill="#D9D9D9"/>
</svg>
